<?xml version="1.0" encoding="utf-8"?>
<!-- Generator: Adobe Illustrator 17.1.0, SVG Export Plug-In . SVG Version: 6.00 Build 0)  -->
<!DOCTYPE svg PUBLIC "-//W3C//DTD SVG 1.1//EN" "http://www.w3.org/Graphics/SVG/1.1/DTD/svg11.dtd">
<svg version="1.1" id="Layer_1" xmlns="http://www.w3.org/2000/svg" xmlns:xlink="http://www.w3.org/1999/xlink" x="0px" y="0px"
	 viewBox="0 0 100 100" enable-background="new 0 0 100 100" xml:space="preserve">
<g>
	<circle fill="none" stroke="#EC008C" stroke-miterlimit="10" stroke-dasharray="11.5363,11.5363" cx="50.2" cy="48.8" r="47.8">

		<animateTransform attributeName="transform"
			attributeType="XML"
			type="rotate"
			from="0 50 50"
			to="360 50 50"
			dur="10s"
			repeatCount="indefinite" />

	</circle>
</g>
<circle fill="#EC008C" cx="50.2" cy="48.8" r="38.8"/>
<path fill="#FFFFFF" d="M35,58c0,1.7-1.3,3-3,3l0,0c-1.7,0-3-1.3-3-3V42c0-1.7,1.3-3,3-3l0,0c1.7,0,3,1.3,3,3V58z"/>
<path fill="#FFFFFF" d="M44,58c0,1.7-1.3,3-3,3l0,0c-1.7,0-3-1.3-3-3V42c0-1.7,1.3-3,3-3l0,0c1.7,0,3,1.3,3,3V58z"/>
<path fill="#FFFFFF" d="M54,58c0,1.7-1.3,3-3,3l0,0c-1.7,0-3-1.3-3-3V42c0-1.7,1.3-3,3-3l0,0c1.7,0,3,1.3,3,3V58z">
	<animateTransform id="hi"
		attributeName="transform"
		attributeType="XML"
		type="translate"
		begin=".3"
		dur="1s"
		values="0,6;0,-6,0,6"
		repeatCount="indefinite"/>
</path>
<path fill="#FFFFFF" d="M63,58c0,1.7-1.3,3-3,3l0,0c-1.7,0-3-1.3-3-3V42c0-1.7,1.3-3,3-3l0,0c1.7,0,3,1.3,3,3V58z"/>
<path fill="#FFFFFF" d="M72,58c0,1.7-1.3,3-3,3l0,0c-1.7,0-3-1.3-3-3V42c0-1.7,1.3-3,3-3l0,0c1.7,0,3,1.3,3,3V58z"/>
</svg>
